<svg xmlns="http://www.w3.org/2000/svg" width="1500" height="730" viewBox="0 0 1500 730" role="img"><title>Compatibility has more than one dimension</title><desc>Synthetic matrix separating structure, semantics, behavior, operations, security, and rights.</desc><defs><marker id="a" markerWidth="10" markerHeight="10" refX="9" refY="3" orient="auto"><path d="M0,0 L0,6 L9,3 z" fill="#285b54"/></marker></defs><rect width="1500" height="730" fill="white"/><text x="55" y="48" font-family="Liberation Sans, Arial, sans-serif" font-size="23" font-weight="700" text-anchor="start" fill="#285b54">ENTIF.AI  /  ETR-2026-04</text><text x="55" y="111" font-family="Liberation Sans, Arial, sans-serif" font-size="43" font-weight="700" text-anchor="start" fill="#152c32">Compatibility has more than one dimension</text><rect x="55" y="192" width="262" height="77" rx="10" fill="#152c32" stroke="#9cafa7" stroke-width="2"/><text x="186.0" y="240" font-family="Liberation Sans, Arial, sans-serif" font-size="22" font-weight="700" text-anchor="middle" fill="white">PROCESS</text><rect x="320" y="192" width="177" height="77" rx="10" fill="#152c32" stroke="#9cafa7" stroke-width="2"/><text x="408.5" y="240" font-family="Liberation Sans, Arial, sans-serif" font-size="22" font-weight="700" text-anchor="middle" fill="white">STRUCTURE</text><rect x="500" y="192" width="177" height="77" rx="10" fill="#152c32" stroke="#9cafa7" stroke-width="2"/><text x="588.5" y="240" font-family="Liberation Sans, Arial, sans-serif" font-size="22" font-weight="700" text-anchor="middle" fill="white">MEANING</text><rect x="680" y="192" width="177" height="77" rx="10" fill="#152c32" stroke="#9cafa7" stroke-width="2"/><text x="768.5" y="240" font-family="Liberation Sans, Arial, sans-serif" font-size="22" font-weight="700" text-anchor="middle" fill="white">BEHAVIOR</text><rect x="860" y="192" width="177" height="77" rx="10" fill="#152c32" stroke="#9cafa7" stroke-width="2"/><text x="948.5" y="240" font-family="Liberation Sans, Arial, sans-serif" font-size="22" font-weight="700" text-anchor="middle" fill="white">OPERATION</text><rect x="1040" y="192" width="177" height="77" rx="10" fill="#152c32" stroke="#9cafa7" stroke-width="2"/><text x="1128.5" y="240" font-family="Liberation Sans, Arial, sans-serif" font-size="22" font-weight="700" text-anchor="middle" fill="white">SECURITY</text><rect x="1220" y="192" width="177" height="77" rx="10" fill="#152c32" stroke="#9cafa7" stroke-width="2"/><text x="1308.5" y="240" font-family="Liberation Sans, Arial, sans-serif" font-size="22" font-weight="700" text-anchor="middle" fill="white">RIGHTS</text><rect x="55" y="285" width="262" height="91" rx="10" fill="#eff4f1" stroke="#9cafa7" stroke-width="2"/><text x="186.0" y="341" font-family="Liberation Sans, Arial, sans-serif" font-size="27" font-weight="700" text-anchor="middle" fill="#152c32">Source upload</text><rect x="320" y="285" width="177" height="91" rx="10" fill="#eff4f1" stroke="#9cafa7" stroke-width="2"/><text x="408.5" y="341" font-family="Liberation Sans, Arial, sans-serif" font-size="27" font-weight="400" text-anchor="middle" fill="#152c32">Pass</text><rect x="500" y="285" width="177" height="91" rx="10" fill="#eff4f1" stroke="#9cafa7" stroke-width="2"/><text x="588.5" y="341" font-family="Liberation Sans, Arial, sans-serif" font-size="27" font-weight="400" text-anchor="middle" fill="#152c32">Pass</text><rect x="680" y="285" width="177" height="91" rx="10" fill="#eff4f1" stroke="#9cafa7" stroke-width="2"/><text x="768.5" y="341" font-family="Liberation Sans, Arial, sans-serif" font-size="27" font-weight="400" text-anchor="middle" fill="#152c32">Pass</text><rect x="860" y="285" width="177" height="91" rx="10" fill="#eff4f1" stroke="#9cafa7" stroke-width="2"/><text x="948.5" y="341" font-family="Liberation Sans, Arial, sans-serif" font-size="27" font-weight="400" text-anchor="middle" fill="#152c32">Pass</text><rect x="1040" y="285" width="177" height="91" rx="10" fill="#eff4f1" stroke="#9cafa7" stroke-width="2"/><text x="1128.5" y="341" font-family="Liberation Sans, Arial, sans-serif" font-size="27" font-weight="400" text-anchor="middle" fill="#152c32">Pass</text><rect x="1220" y="285" width="177" height="91" rx="10" fill="#eff4f1" stroke="#9cafa7" stroke-width="2"/><text x="1308.5" y="341" font-family="Liberation Sans, Arial, sans-serif" font-size="27" font-weight="400" text-anchor="middle" fill="#152c32">Pass</text><rect x="55" y="390" width="262" height="91" rx="10" fill="#eff4f1" stroke="#9cafa7" stroke-width="2"/><text x="186.0" y="446" font-family="Liberation Sans, Arial, sans-serif" font-size="27" font-weight="700" text-anchor="middle" fill="#152c32">Legacy analysis</text><rect x="320" y="390" width="177" height="91" rx="10" fill="#eff4f1" stroke="#9cafa7" stroke-width="2"/><text x="408.5" y="446" font-family="Liberation Sans, Arial, sans-serif" font-size="27" font-weight="400" text-anchor="middle" fill="#152c32">Pass</text><rect x="500" y="390" width="177" height="91" rx="10" fill="#f5f0e5" stroke="#9cafa7" stroke-width="2"/><text x="588.5" y="446" font-family="Liberation Sans, Arial, sans-serif" font-size="27" font-weight="400" text-anchor="middle" fill="#152c32">Lossy</text><rect x="680" y="390" width="177" height="91" rx="10" fill="#f5f0e5" stroke="#9cafa7" stroke-width="2"/><text x="768.5" y="446" font-family="Liberation Sans, Arial, sans-serif" font-size="27" font-weight="400" text-anchor="middle" fill="#152c32">Unknown</text><rect x="860" y="390" width="177" height="91" rx="10" fill="#eff4f1" stroke="#9cafa7" stroke-width="2"/><text x="948.5" y="446" font-family="Liberation Sans, Arial, sans-serif" font-size="27" font-weight="400" text-anchor="middle" fill="#152c32">Pass</text><rect x="1040" y="390" width="177" height="91" rx="10" fill="#eff4f1" stroke="#9cafa7" stroke-width="2"/><text x="1128.5" y="446" font-family="Liberation Sans, Arial, sans-serif" font-size="27" font-weight="400" text-anchor="middle" fill="#152c32">Pass</text><rect x="1220" y="390" width="177" height="91" rx="10" fill="#eff4f1" stroke="#9cafa7" stroke-width="2"/><text x="1308.5" y="446" font-family="Liberation Sans, Arial, sans-serif" font-size="27" font-weight="400" text-anchor="middle" fill="#152c32">Pass</text><rect x="55" y="495" width="262" height="91" rx="10" fill="#eff4f1" stroke="#9cafa7" stroke-width="2"/><text x="186.0" y="551" font-family="Liberation Sans, Arial, sans-serif" font-size="27" font-weight="700" text-anchor="middle" fill="#152c32">Old-version retry</text><rect x="320" y="495" width="177" height="91" rx="10" fill="#eff4f1" stroke="#9cafa7" stroke-width="2"/><text x="408.5" y="551" font-family="Liberation Sans, Arial, sans-serif" font-size="27" font-weight="400" text-anchor="middle" fill="#152c32">Pass</text><rect x="500" y="495" width="177" height="91" rx="10" fill="#eff4f1" stroke="#9cafa7" stroke-width="2"/><text x="588.5" y="551" font-family="Liberation Sans, Arial, sans-serif" font-size="27" font-weight="400" text-anchor="middle" fill="#152c32">Pass</text><rect x="680" y="495" width="177" height="91" rx="10" fill="#f5f0e5" stroke="#9cafa7" stroke-width="2"/><text x="768.5" y="551" font-family="Liberation Sans, Arial, sans-serif" font-size="27" font-weight="400" text-anchor="middle" fill="#152c32">Fail</text><rect x="860" y="495" width="177" height="91" rx="10" fill="#f5f0e5" stroke="#9cafa7" stroke-width="2"/><text x="948.5" y="551" font-family="Liberation Sans, Arial, sans-serif" font-size="27" font-weight="400" text-anchor="middle" fill="#152c32">Unknown</text><rect x="1040" y="495" width="177" height="91" rx="10" fill="#f5f0e5" stroke="#9cafa7" stroke-width="2"/><text x="1128.5" y="551" font-family="Liberation Sans, Arial, sans-serif" font-size="27" font-weight="400" text-anchor="middle" fill="#152c32">Revoked</text><rect x="1220" y="495" width="177" height="91" rx="10" fill="#f5f0e5" stroke="#9cafa7" stroke-width="2"/><text x="1308.5" y="551" font-family="Liberation Sans, Arial, sans-serif" font-size="27" font-weight="400" text-anchor="middle" fill="#152c32">Unknown</text><text x="750" y="644" font-family="Liberation Sans, Arial, sans-serif" font-size="32" font-weight="700" text-anchor="middle" fill="#152c32">Hard security and rights floors precede soft fallback preferences.</text><text x="55" y="690" font-family="Liberation Sans, Arial, sans-serif" font-size="24" font-weight="400" text-anchor="start" fill="#7b622e">All cells are illustrative. No deployment, benchmark, or incident data is depicted.</text></svg>